#!OML:ASF F:\VICON\USERDATA\INSTALL\rory3\rory3.ASF
:FULLY-SPECIFIED
:DEGREES
9
root 0.32959525625120745 17.065729722999368 -25.292893054858347 1.797286963624374 5.840220509998312 1.8380259866269384
lfemur 13.15722644705668 -2.558632531699374 -27.362708858797884
ltibia 27.157273857104727
lfoot -17.040489996121416 -8.099616045908116
ltoes -8.34478096556067
rfemur -36.49623850920126 7.215000470846293 17.973923888436502
rtibia 32.28389914719777
rfoot 3.43829297086808 -9.570670392948061
rtoes -2.8930076363583144
lowerback 15.125084291137945 -1.4985694420906417 -3.8275989553453704
upperback -1.1358535467026472 -2.438764098183867 2.209792912950974
thorax -8.891309618821463 -0.9656863196419989 4.72334245824567
lowerneck -18.555583927810396 -1.291098609733596 -2.764486831374967
upperneck 16.47170550276621 -0.9673844331411732 -0.3380821123392106
head 8.223145770406251 -0.5965241506258534 0.20563454384208205
lclavicle -1.6751861089313962e-15 -3.591867791707254e-15
lhumerus -28.84561585763231 -12.109798717843972 87.47764611110783
lradius 84.47262122965914
lwrist 28.49091907001121
lhand -34.38622829517916 9.87981003227733
lfingers 7.125019999999999
lthumb -7.552579999680368 39.771123066150906
rclavicle -1.6751861089313962e-15 -3.591867791707254e-15
rhumerus -50.27782739607002 -12.95623493876412 -79.09174201983357
rradius 59.70417225364316
rwrist 3.166443870499241
rhand -19.6622779901827 28.6588980307469
rfingers 7.125019999999999
rthumb 6.665860124966911 -1.2378172738342192
10
root 0.24405234480103677 17.295682091419973 -24.224618910124853 1.1878174135507886 5.102349633699361 0.46810775676384964
lfemur 12.71408986250949 -4.175916879291507 -25.556029234640285
ltibia 36.79780667318061
lfoot -10.357477780282418 -10.516270600889321
ltoes -21.51146284781637
rfemur -35.22093463473321 5.1139333321159555 21.341153779579827
rtibia 37.76531976075681
rfoot 9.442361352917072 -5.49732565770763
rtoes 2.799335783985562
lowerback 15.347893762575897 -1.6961467872108185 -2.3127655213539544
upperback -1.4316163255020615 -2.478719314229094 2.9162212744606633
thorax -9.329085741564947 -1.0110708131147408 4.472758840096494
lowerneck -18.864487460031654 -0.8567820375274442 -2.9140114478026113
upperneck 17.430066795077945 -0.13212228694143935 -1.0483556226424622
head 8.549606143948118 -0.3053735900184369 0.0813102146822327
lclavicle -1.6751860713476699e-15 -3.591867750006885e-15
lhumerus -31.167980709843015 -10.205737768590048 88.27268578293723
lradius 82.10121562269248
lwrist 26.071476603392885
lhand -34.99253671970239 11.644114971399302
lfingers 7.125019999999999
lthumb -8.137889462306818 41.52274842222802
rclavicle -1.6751860713476699e-15 -3.591867750006885e-15
rhumerus -51.654218237475064 -13.73560840969699 -77.7158748881643
rradius 58.92203107018823
rwrist 2.7099397067943922
rhand -22.390489819458395 25.343174541930413
rfingers 7.125019999999999
rthumb 4.032116624747989 -4.658409176992681
11
root 0.15915251053999946 17.608098455859007 -23.135344373641345 0.4910172997446153 3.5555933371471564 -0.3830663983646243
lfemur 8.600872795859196 -1.9117467266136972 -23.06622343046367
ltibia 50.984929524351415
lfoot 9.053866160059075 -17.663972270830847
ltoes -22.43366017290309
rfemur -31.935812007673427 4.230247128275979 23.97133775924418
rtibia 41.38870545230311
rfoot 8.449930824395903 -3.595548730750853
rtoes 6.106664801114702
lowerback 14.685273383219089 -1.3861099933315852 -0.9406303264294955
upperback -1.1751228222775554 -1.8732987806299566 2.6713127717408027
thorax -8.97235682636483 -0.7852335953759737 3.379270798590471
lowerneck -19.246859809546326 -1.496432949977214 -2.602388885053743
upperneck 17.85991428082459 -1.176551518249913 -0.6030679691574932
head 8.72363977824218 -0.7533068310504094 0.036835262747750286
lclavicle -1.675186268424924e-15 -3.5918677146248045e-15
lhumerus -32.85601987946136 -8.874417715200504 88.6151526265332
lradius 78.42567656171438
lwrist 22.491894732077387
lhand -34.68895337771368 11.603806483882266
lfingers 7.125019999999999
lthumb -7.844826982479214 41.488913692507744
rclavicle -1.675186268424924e-15 -3.5918677146248045e-15
rhumerus -52.35960425321942 -14.452548042406878 -77.82422639481064
rradius 58.987913533863036
rwrist 2.2435741058663474
rhand -23.919989083784046 20.94109287815136
rfingers 7.125019999999999
rthumb 2.5552899733873655 -9.093519085553812
12
root 0.056925112582053405 18.026646688132413 -22.13681555911201 -0.00988848736194281 2.626071147035203 -2.2600156932343367
lfemur 0.331893663629824 -0.5033633026161914 -19.134353968297265
ltibia 66.77904463639078
lfoot 30.64007604944545 -27.264834197563673
ltoes 8.062382182285722
rfemur -26.531581757108185 5.999654466554167 27.344832648294425
rtibia 40.25437042370707
rfoot 4.397991607253604 -4.687599364089541
rtoes 5.910920505932031
lowerback 15.354405476172193 -1.2635259863130632 0.8729852920598484
upperback -1.19488109818026 -1.4264381282509249 3.2559334392119474
thorax -9.3738624853704 -0.6232722117193261 2.780299475248677
lowerneck -20.006804226620353 -2.406194800199871 -2.635750281768895
upperneck 18.284698659059387 -2.255067374945531 -0.39066185202988213
head 8.942314884797542 -1.336735781006713 -0.0059470671218394555
lclavicle -1.675186140818892e-15 -3.591867751270538e-15
lhumerus -35.14523992404604 -6.704047915324972 88.93856508721548
lradius 75.63056039125412
lwrist 20.773397775260705
lhand -32.94479819466118 11.834990071282311
lfingers 7.125019999999999
lthumb -6.160818814547806 41.75093622333984
rclavicle -1.675186140818892e-15 -3.591867751270538e-15
rhumerus -51.080823348364504 -14.054248746758145 -78.58475252281326
rradius 58.17649115915381
rwrist 3.271431479072069
rhand -19.26377960325374 26.675558350622566
rfingers 7.125019999999999
rthumb 7.050529335244774 -3.1937395327568
